<svg width="153" height="94" viewBox="0 0 153 94" fill="none" xmlns="http://www.w3.org/2000/svg">
<path d="M64.1497 29.8602C65.0704 31.573 65.7338 33.3155 66.1001 35.0976C66.2882 35.9589 66.407 36.8203 66.4565 37.7015C66.506 38.543 66.4961 39.4044 66.4268 40.2756H66.3575C65.5259 40.3251 64.6546 40.3548 63.724 40.3449C62.7537 40.3251 61.7339 40.2855 60.635 40.1964C59.4766 40.0776 58.3083 39.8895 57.1104 39.6123C55.8629 39.3251 54.5956 38.9588 53.2689 38.5034C53.3976 37.0282 52.6848 35.6421 51.071 34.2758C49.3582 32.7908 47.289 31.573 44.8732 30.6522C42.2199 29.6424 39.6457 29.1572 37.1112 29.2265C34.5469 29.3454 33.3588 30.4641 33.646 32.5927C33.5569 33.068 33.6163 33.5828 33.844 34.1372C34.1113 34.6026 34.438 35.1174 34.735 35.6421C36.3092 37.5331 38.2299 38.84 40.4576 39.6222C42.5169 40.3746 44.5762 40.9488 46.6256 41.3449C48.982 41.7607 51.1106 42.2854 53.0412 42.8993C54.8233 43.4834 56.4668 44.1566 57.942 44.9091C59.3677 45.6318 60.5954 46.4041 61.6547 47.2159C62.6646 47.9981 63.526 48.8396 64.2487 49.7406C65.1002 50.6712 65.714 51.691 66.0803 52.7999C66.4367 53.8691 66.5951 55.0275 66.5456 56.2552C66.5159 57.5224 66.308 58.8788 65.8625 60.354C65.4467 61.8391 64.8031 63.3836 63.9715 64.9974C63.0111 67.0369 61.7735 69.0071 60.2489 70.8486C58.5856 72.8881 56.6252 74.8287 54.3481 76.69C51.9225 78.7196 49.1305 80.7294 45.8633 82.6996C42.408 84.759 38.5765 86.6896 34.3291 88.5311C30.953 90.0162 27.3591 91.4617 24.8938 91.6894C23.0424 91.3825 21.1613 90.9072 19.3198 90.333C17.4783 89.6894 15.7655 88.9469 14.1418 88.0757C12.4983 87.2044 10.9835 86.2341 9.54793 85.1451C8.10244 84.0362 6.82526 82.8184 5.6867 81.4819C4.53823 80.1651 3.56797 78.7097 2.70662 77.1256C1.86507 75.5415 1.27103 73.8386 0.91461 72.007C0.587891 70.2051 0.597791 68.2646 0.587891 66.2647V65.8785V65.4924C2.04328 65.2845 3.57787 65.1459 5.19167 65.1063C6.83516 65.0766 8.51827 65.1261 10.3004 65.2548C12.0726 65.3241 16.607 64.6311 20.6861 63.9479C24.3394 63.3638 27.5175 62.8291 30.2501 62.3242C29.6758 64.7895 30.854 66.334 33.7252 66.8884C36.4973 67.423 39.3784 67.324 42.3387 66.6211C45.1604 65.8983 47.5365 64.7895 49.5166 63.3341C51.4076 61.9777 52.2888 60.3441 52.2096 58.4531C52.2195 57.1759 51.7046 56.2255 50.6255 55.6017C49.5166 54.9087 48.0612 54.3839 46.1999 54.0275C44.3584 53.6414 42.1308 53.4038 39.4873 53.3345C36.626 53.1959 33.6361 53.0573 30.6263 52.9385C27.4482 52.8296 24.28 52.5028 21.1217 51.9682C17.6169 51.3742 14.1418 50.6019 10.7261 49.6515C8.34995 47.8001 6.76586 45.8496 5.48868 43.7804C4.22141 41.7409 3.30065 39.5925 2.70662 37.345C2.16208 35.1075 1.88487 32.9195 1.86507 30.7314C1.82546 28.5731 2.08288 26.4247 2.56801 24.3059C3.07294 22.1872 3.81548 20.1774 4.76594 18.2567C5.7164 16.3261 6.87477 14.5044 8.24105 12.7916C9.70634 11.0392 11.2706 9.54417 12.9933 8.25709C14.716 6.97992 16.5872 5.91065 18.5872 5.0889C20.6069 4.23745 22.8345 3.69292 25.2701 3.46521C27.7056 3.13849 31.2995 4.23745 35.8934 6.772C39.9823 8.85113 43.6753 11.0293 47.0019 13.2173C50.1107 15.2172 52.7442 17.1181 55.0015 18.9398C57.1005 20.7417 58.9222 22.5832 60.4667 24.4743C61.9221 26.2366 63.1299 28.0286 64.1497 29.8602ZM76.1096 18.9893C76.763 19.0289 77.5551 19.0091 78.5055 18.9596C79.456 18.8903 80.5649 18.7418 81.852 18.5141L83.941 18.1775L83.8816 18.7616C83.644 20.7714 83.4261 22.6526 83.2281 24.4248C83.04 26.0782 82.8618 27.6623 82.6836 29.1572C82.5252 30.5829 82.3767 31.9294 82.2282 33.2264C82.0896 34.464 81.9609 35.652 81.8223 36.7906C81.7232 37.8896 81.6242 38.9588 81.5351 39.9885C81.4361 40.9785 81.3668 41.9488 81.2876 42.8894C81.2183 43.8101 81.1688 44.721 81.1094 45.6021C81.0698 46.4833 81.0302 47.3446 81.0104 48.1961C81.0005 49.0376 81.0005 49.8792 81.0005 50.7207C81.0302 51.5821 81.0599 52.4434 81.0995 53.3246C81.149 54.2255 81.1985 55.1364 81.2678 56.067C81.3371 57.0373 81.4262 58.0373 81.5054 59.057C81.6044 60.1164 81.7232 61.2154 81.842 62.344C81.9807 63.542 82.1292 64.7697 82.2975 66.0468C82.4757 67.3933 82.6638 68.7992 82.8816 70.2744C83.1093 71.8387 83.3568 73.5119 83.6341 75.2544C83.2677 75.8583 82.3668 76.0761 80.951 75.9672C79.6243 76.0068 78.159 75.9276 76.5749 75.7692C75.0601 75.6702 73.6048 75.5613 72.1791 75.492C70.7633 75.5514 69.7534 75.7494 69.1792 76.0761C69.4465 74.1752 69.6643 72.3931 69.8623 70.7199C70.0504 69.1556 70.2089 67.6507 70.3376 66.235C70.4663 64.8885 70.5752 63.5915 70.6742 62.344C70.7534 61.1758 70.8227 60.0372 70.8623 58.9382C70.9118 57.8789 70.9613 56.8591 70.991 55.8591C71.0108 54.9087 71.0207 53.9681 71.0405 53.0573C71.0504 52.1563 71.0405 51.2752 71.0207 50.4138C71.0009 49.5525 70.9811 48.701 70.9316 47.8496C70.9019 46.9783 70.8524 46.0872 70.8029 45.2061C70.7534 44.3051 70.694 43.3844 70.6148 42.4438C70.5554 41.4835 70.4861 40.4934 70.397 39.4836C70.3178 38.4341 70.2386 37.3549 70.1495 36.2461C70.0504 35.0679 69.9712 33.8501 69.8821 32.5927C69.793 31.2859 69.7237 29.8899 69.6643 28.4642C69.5752 26.9494 69.5059 25.3554 69.4465 23.6921C69.3871 21.9298 69.3277 20.0487 69.2584 18.0488L69.2386 17.7518C69.5356 17.7221 70.0801 17.8409 70.8821 18.1478C71.7236 18.3161 72.3474 18.4448 72.7236 18.4448C73.7236 18.6131 74.8522 18.8012 76.1096 18.9893ZM107.762 29.3553C106.237 29.9493 105.009 30.6423 104.079 31.3948C103.841 31.5829 103.584 31.87 103.307 32.2561C103.128 32.5432 102.97 32.7809 102.851 32.9294C102.633 33.1769 102.128 34.3451 101.465 36.3946C101.198 37.3549 100.94 38.3846 100.693 39.4638C100.465 40.5429 100.247 41.6617 100.049 42.83C99.8908 43.9982 99.7522 45.1467 99.6631 46.315C99.6037 47.4832 99.574 48.6515 99.5938 49.8693C99.6532 51.0474 99.7621 52.1662 99.9205 53.2157C100.109 54.2849 100.336 55.2948 100.604 56.2453C101.138 57.869 102.109 59.5818 103.604 61.453C105.326 63.4232 107.811 65.0568 111.257 66.3736C114.029 67.1557 116.682 67.5616 119.177 67.5319C121.989 67.4923 123.939 66.7894 124.9 65.4231C126.127 63.8885 126.197 62.0569 125.157 60.0372C124.415 58.0571 124.286 56.2156 124.791 54.4829C127.335 54.7899 130.325 55.0374 133.909 55.2156C138.087 55.4136 141.166 55.5423 142.701 55.5423C144.196 55.5324 145.691 55.5819 147.117 55.6809C148.622 55.7601 149.968 55.9779 151.156 56.3146C151.889 58.4828 152.374 60.6708 152.592 62.8489C152.78 65.0469 152.74 67.225 152.433 69.413C152.116 71.5516 151.592 73.601 150.879 75.5217C150.146 77.4523 149.225 79.2839 148.117 81.0264C146.988 82.7392 145.681 84.3134 144.206 85.7292C142.711 87.1648 141.048 88.442 139.206 89.5904C137.365 90.6894 135.444 91.4914 133.385 92.0656C131.325 92.6398 129.127 92.9269 126.801 92.9962C125.286 93.2042 123.741 93.3032 120.801 92.0161C117.841 90.5805 114.93 89.0459 112.187 87.5113C109.702 86.1846 107.376 84.8184 105.207 83.4125C103.188 82.1155 101.326 80.7987 99.6136 79.4918C97.9404 78.1751 96.4652 76.8583 95.1187 75.5118C93.8614 74.2544 92.7129 72.9773 91.6931 71.6704C90.7724 70.4526 89.9902 69.1853 89.3467 67.9081C88.7626 66.6805 88.3071 65.4429 87.9804 64.1657C87.7527 63.1262 87.5448 62.0866 87.3567 61.0767C87.1785 60.1065 87.0102 59.1362 86.8716 58.1759C86.7329 57.2452 86.5943 56.2948 86.4656 55.2948C86.3567 54.3344 86.2577 53.3444 86.1587 52.3246C86.1092 51.295 86.0795 50.2158 86.0597 49.0673C86.0498 47.9387 86.0795 46.7506 86.1191 45.4635C86.1686 44.8002 86.228 44.1071 86.2874 43.3745C86.3567 42.6418 86.4359 41.8597 86.525 41.028C86.6339 40.1865 86.7428 39.2954 86.8716 38.3549C87.0102 37.3846 87.1587 36.3451 87.3369 35.2362C87.3567 34.2956 87.5349 33.3056 87.8616 32.2363C88.2774 31.0681 88.7428 29.9196 89.2774 28.8404C90.1783 26.8504 91.2575 24.8109 92.5347 22.7318C93.9802 20.4447 95.7326 18.1181 97.7523 15.7815C98.9404 14.5539 100.247 13.3361 101.673 12.2371C103.217 10.8906 104.831 9.60357 106.564 8.3759C109.683 5.94035 113.029 3.60382 116.524 1.39598C119.494 0.0198012 121.395 0 123.296 0C125.177 0.118807 127.009 0.405924 128.771 0.861351C130.563 1.30688 132.256 1.91081 133.87 2.68306C135.582 3.3959 137.186 4.24735 138.701 5.20771C140.236 6.16807 141.661 7.27693 143.008 8.48481C144.384 9.71248 145.602 11.0491 146.671 12.4351C147.77 13.8608 148.73 15.3558 149.522 16.9696C150.344 18.5339 150.988 20.1477 151.513 21.8704C151.998 23.5535 152.334 25.3455 152.532 27.1771C152.71 29.0384 152.661 30.8997 152.443 32.7908C152.215 34.6917 151.75 36.6025 151.126 38.5232C149.562 38.8697 148.018 39.0974 146.483 39.2162C144.958 39.3251 143.414 39.3647 141.919 39.2657C140.444 39.137 136.87 39.2954 132.771 39.5232C129.088 39.7212 125.642 39.8499 122.454 39.9588C122.326 38.6222 122.444 37.0579 122.86 35.256C123.553 33.3452 123.811 31.5928 123.712 30.0582C123.642 28.4048 122.761 27.2365 120.999 26.6524C119.544 25.9891 116.672 26.3158 112.821 27.4543C111.168 28.0484 109.485 28.6919 107.762 29.3553Z" fill="white"/>
</svg>
